<?xml version="1.0" encoding="utf-8"?><svg width="auto" height="2970" style="overflow:visible " version="1.1" xmlns="http://www.w3.org/2000/svg"><rect x="20" y="20" width="200" height="40" style="fill:white;stroke:black;stroke-width:1" /><text x="30" y="30" font-size="10" style="fill:blue">circuito</text><rect x="240" y="20" width="200" height="40" style="fill:white;stroke:black;stroke-width:1" /><text x="250" y="30" font-size="10" style="fill:blue">nombre</text><path d="M220 40 C240 40 220 40 240 40" style="fill:transparent;stroke:black" /><rect x="306" y="20" width="137" height="40" style="fill:green;stroke:black;stroke-width:1" /><text x="316" y="30" font-size="8" style="fill:white">Circuit Ricardo Tormo</text><rect x="240" y="70" width="200" height="40" style="fill:white;stroke:black;stroke-width:1" /><text x="250" y="80" font-size="10" style="fill:blue">medidas</text><path d="M220 40 C240 40 220 90 240 90" style="fill:transparent;stroke:black" /><rect x="460" y="70" width="200" height="40" style="fill:white;stroke:black;stroke-width:1" /><text x="470" y="80" font-size="10" style="fill:blue">longitud</text><path d="M440 90 C460 90 440 90 460 90" style="fill:transparent;stroke:black" /><text x="470" y="90" font-size="8" style="fill:black">unidad: m</text><rect x="526" y="70" width="137" height="40" style="fill:green;stroke:black;stroke-width:1" /><text x="536" y="80" font-size="8" style="fill:white">4005</text><rect x="460" y="120" width="200" height="40" style="fill:white;stroke:black;stroke-width:1" /><text x="470" y="130" font-size="10" style="fill:blue">anchura</text><path d="M440 90 C460 90 440 140 460 140" style="fill:transparent;stroke:black" /><text x="470" y="140" font-size="8" style="fill:black">unidad: m</text><rect x="526" y="120" width="137" height="40" style="fill:green;stroke:black;stroke-width:1" /><text x="536" y="130" font-size="8" style="fill:white">10</text><rect x="240" y="220" width="200" height="40" style="fill:white;stroke:black;stroke-width:1" /><text x="250" y="230" font-size="10" style="fill:blue">fecha</text><path d="M220 40 C240 40 220 240 240 240" style="fill:transparent;stroke:black" /><text x="250" y="240" font-size="8" style="fill:black">anio: 2025</text><rect x="306" y="220" width="137" height="40" style="fill:green;stroke:black;stroke-width:1" /><text x="316" y="230" font-size="8" style="fill:white">2025-09-16</text><rect x="240" y="270" width="200" height="40" style="fill:white;stroke:black;stroke-width:1" /><text x="250" y="280" font-size="10" style="fill:blue">hora</text><path d="M220 40 C240 40 220 290 240 290" style="fill:transparent;stroke:black" /><text x="250" y="290" font-size="8" style="fill:black">zona_horaria: Europe/Madrid</text><text x="250" y="300" font-size="8" style="fill:black">formato: HH:MM</text><rect x="306" y="270" width="137" height="40" style="fill:green;stroke:black;stroke-width:1" /><text x="316" y="280" font-size="8" style="fill:white">14:00</text><rect x="240" y="320" width="200" height="40" style="fill:white;stroke:black;stroke-width:1" /><text x="250" y="330" font-size="10" style="fill:blue">vueltas</text><path d="M220 40 C240 40 220 340 240 340" style="fill:transparent;stroke:black" /><text x="250" y="340" font-size="8" style="fill:black">unidad: vueltas</text><rect x="306" y="320" width="137" height="40" style="fill:green;stroke:black;stroke-width:1" /><text x="316" y="330" font-size="8" style="fill:white">27</text><rect x="240" y="370" width="200" height="40" style="fill:white;stroke:black;stroke-width:1" /><text x="250" y="380" font-size="10" style="fill:blue">localidad</text><path d="M220 40 C240 40 220 390 240 390" style="fill:transparent;stroke:black" /><rect x="306" y="370" width="137" height="40" style="fill:green;stroke:black;stroke-width:1" /><text x="316" y="380" font-size="8" style="fill:white">Cheste</text><rect x="240" y="420" width="200" height="40" style="fill:white;stroke:black;stroke-width:1" /><text x="250" y="430" font-size="10" style="fill:blue">pais</text><path d="M220 40 C240 40 220 440 240 440" style="fill:transparent;stroke:black" /><rect x="306" y="420" width="137" height="40" style="fill:green;stroke:black;stroke-width:1" /><text x="316" y="430" font-size="8" style="fill:white">España</text><rect x="240" y="470" width="200" height="40" style="fill:white;stroke:black;stroke-width:1" /><text x="250" y="480" font-size="10" style="fill:blue">patrocinador</text><path d="M220 40 C240 40 220 490 240 490" style="fill:transparent;stroke:black" /><rect x="306" y="470" width="137" height="40" style="fill:green;stroke:black;stroke-width:1" /><text x="316" y="480" font-size="8" style="fill:white">Motul</text><rect x="240" y="520" width="200" height="40" style="fill:white;stroke:black;stroke-width:1" /><text x="250" y="530" font-size="10" style="fill:blue">referencias</text><path d="M220 40 C240 40 220 540 240 540" style="fill:transparent;stroke:black" /><rect x="460" y="520" width="200" height="40" style="fill:white;stroke:black;stroke-width:1" /><text x="470" y="530" font-size="10" style="fill:blue">referencia</text><path d="M440 540 C460 540 440 540 460 540" style="fill:transparent;stroke:black" /><text x="470" y="540" font-size="8" style="fill:black">tipo: web</text><text x="470" y="550" font-size="8" style="fill:black">enlace: https://www.circuitricardotormo.com/</text><rect x="526" y="520" width="137" height="40" style="fill:green;stroke:black;stroke-width:1" /><text x="536" y="530" font-size="8" style="fill:white"> Web oficial</text><rect x="460" y="570" width="200" height="40" style="fill:white;stroke:black;stroke-width:1" /><text x="470" y="580" font-size="10" style="fill:blue">referencia</text><path d="M440 540 C460 540 440 590 460 590" style="fill:transparent;stroke:black" /><text x="470" y="590" font-size="8" style="fill:black">tipo: libro</text><text x="470" y="600" font-size="8" style="fill:black">enlace: https://entradas.circuitvalencia.com/circuitvalencia/events/referencia</text><rect x="526" y="570" width="137" height="40" style="fill:green;stroke:black;stroke-width:1" /><text x="536" y="580" font-size="8" style="fill:white"> Compra de entradas </text><rect x="460" y="620" width="200" height="40" style="fill:white;stroke:black;stroke-width:1" /><text x="470" y="630" font-size="10" style="fill:blue">referencia</text><path d="M440 540 C460 540 440 640 460 640" style="fill:transparent;stroke:black" /><text x="470" y="640" font-size="8" style="fill:black">tipo: documento</text><text x="470" y="650" font-size="8" style="fill:black">enlace: https://es.wikipedia.org/wiki/Circuito_Ricardo_Tormo</text><rect x="526" y="620" width="137" height="40" style="fill:green;stroke:black;stroke-width:1" /><text x="536" y="630" font-size="8" style="fill:white"> Entrada wikipedia </text><rect x="240" y="720" width="200" height="40" style="fill:white;stroke:black;stroke-width:1" /><text x="250" y="730" font-size="10" style="fill:blue">galeriaFotos</text><path d="M220 40 C240 40 220 740 240 740" style="fill:transparent;stroke:black" /><rect x="460" y="720" width="200" height="40" style="fill:white;stroke:black;stroke-width:1" /><text x="470" y="730" font-size="10" style="fill:blue">foto</text><path d="M440 740 C460 740 440 740 460 740" style="fill:transparent;stroke:black" /><text x="470" y="740" font-size="8" style="fill:black">archivo: Panorama.jpg</text><text x="470" y="750" font-size="8" style="fill:black">descripcion: Circuito</text><rect x="526" y="720" width="137" height="40" style="fill:green;stroke:black;stroke-width:1" /><text x="536" y="730" font-size="8" style="fill:white">../multimedia/circuito.png</text><rect x="240" y="820" width="200" height="40" style="fill:white;stroke:black;stroke-width:1" /><text x="250" y="830" font-size="10" style="fill:blue">galeriaVideos</text><path d="M220 40 C240 40 220 840 240 840" style="fill:transparent;stroke:black" /><rect x="460" y="820" width="200" height="40" style="fill:white;stroke:black;stroke-width:1" /><text x="470" y="830" font-size="10" style="fill:blue">video</text><path d="M440 840 C460 840 440 840 460 840" style="fill:transparent;stroke:black" /><text x="470" y="840" font-size="8" style="fill:black">archivo: TODO.mp4</text><text x="470" y="850" font-size="8" style="fill:black">duracion: TODO</text><rect x="526" y="820" width="137" height="40" style="fill:green;stroke:black;stroke-width:1" /><text x="536" y="830" font-size="8" style="fill:white">../multimedia/circuito.mp4</text><rect x="240" y="920" width="200" height="40" style="fill:white;stroke:black;stroke-width:1" /><text x="250" y="930" font-size="10" style="fill:blue">puntoOrigen</text><path d="M220 40 C240 40 220 940 240 940" style="fill:transparent;stroke:black" /><rect x="460" y="920" width="200" height="40" style="fill:white;stroke:black;stroke-width:1" /><text x="470" y="930" font-size="10" style="fill:blue">longitudCoord</text><path d="M440 940 C460 940 440 940 460 940" style="fill:transparent;stroke:black" /><text x="470" y="940" font-size="8" style="fill:black">unidad: deg</text><rect x="526" y="920" width="137" height="40" style="fill:green;stroke:black;stroke-width:1" /><text x="536" y="930" font-size="8" style="fill:white">-0.7</text><rect x="460" y="970" width="200" height="40" style="fill:white;stroke:black;stroke-width:1" /><text x="470" y="980" font-size="10" style="fill:blue">latitudCoord</text><path d="M440 940 C460 940 440 990 460 990" style="fill:transparent;stroke:black" /><text x="470" y="990" font-size="8" style="fill:black">unidad: deg</text><rect x="526" y="970" width="137" height="40" style="fill:green;stroke:black;stroke-width:1" /><text x="536" y="980" font-size="8" style="fill:white">39.4</text><rect x="460" y="1020" width="200" height="40" style="fill:white;stroke:black;stroke-width:1" /><text x="470" y="1030" font-size="10" style="fill:blue">altitudCoord</text><path d="M440 940 C460 940 440 1040 460 1040" style="fill:transparent;stroke:black" /><text x="470" y="1040" font-size="8" style="fill:black">unidad: m</text><rect x="526" y="1020" width="137" height="40" style="fill:green;stroke:black;stroke-width:1" /><text x="536" y="1030" font-size="8" style="fill:white">75</text><rect x="240" y="1120" width="200" height="40" style="fill:white;stroke:black;stroke-width:1" /><text x="250" y="1130" font-size="10" style="fill:blue">tramos</text><path d="M220 40 C240 40 220 1140 240 1140" style="fill:transparent;stroke:black" /><rect x="460" y="1120" width="200" height="40" style="fill:white;stroke:black;stroke-width:1" /><text x="470" y="1130" font-size="10" style="fill:blue">tramo</text><path d="M440 1140 C460 1140 440 1140 460 1140" style="fill:transparent;stroke:black" /><rect x="680" y="1120" width="200" height="40" style="fill:white;stroke:black;stroke-width:1" /><text x="690" y="1130" font-size="10" style="fill:blue">distancia</text><path d="M660 1140 C680 1140 660 1140 680 1140" style="fill:transparent;stroke:black" /><text x="690" y="1140" font-size="8" style="fill:black">unidad: m</text><rect x="746" y="1120" width="137" height="40" style="fill:green;stroke:black;stroke-width:1" /><text x="756" y="1130" font-size="8" style="fill:white">350</text><rect x="680" y="1170" width="200" height="40" style="fill:white;stroke:black;stroke-width:1" /><text x="690" y="1180" font-size="10" style="fill:blue">puntoFinal</text><path d="M660 1140 C680 1140 660 1190 680 1190" style="fill:transparent;stroke:black" /><rect x="900" y="1170" width="200" height="40" style="fill:white;stroke:black;stroke-width:1" /><text x="910" y="1180" font-size="10" style="fill:blue">longitudCoord</text><path d="M880 1190 C900 1190 880 1190 900 1190" style="fill:transparent;stroke:black" /><text x="910" y="1190" font-size="8" style="fill:black">unidad: deg</text><rect x="966" y="1170" width="137" height="40" style="fill:green;stroke:black;stroke-width:1" /><text x="976" y="1180" font-size="8" style="fill:white">-0.7</text><rect x="900" y="1220" width="200" height="40" style="fill:white;stroke:black;stroke-width:1" /><text x="910" y="1230" font-size="10" style="fill:blue">latitudCoord</text><path d="M880 1190 C900 1190 880 1240 900 1240" style="fill:transparent;stroke:black" /><text x="910" y="1240" font-size="8" style="fill:black">unidad: deg</text><rect x="966" y="1220" width="137" height="40" style="fill:green;stroke:black;stroke-width:1" /><text x="976" y="1230" font-size="8" style="fill:white">39.4</text><rect x="900" y="1270" width="200" height="40" style="fill:white;stroke:black;stroke-width:1" /><text x="910" y="1280" font-size="10" style="fill:blue">altitudCoord</text><path d="M880 1190 C900 1190 880 1290 900 1290" style="fill:transparent;stroke:black" /><text x="910" y="1290" font-size="8" style="fill:black">unidad: m</text><rect x="966" y="1270" width="137" height="40" style="fill:green;stroke:black;stroke-width:1" /><text x="976" y="1280" font-size="8" style="fill:white">76</text><rect x="680" y="1370" width="200" height="40" style="fill:white;stroke:black;stroke-width:1" /><text x="690" y="1380" font-size="10" style="fill:blue">sector</text><path d="M660 1140 C680 1140 660 1390 680 1390" style="fill:transparent;stroke:black" /><text x="690" y="1390" font-size="8" style="fill:black">numero: 1</text><rect x="746" y="1370" width="137" height="40" style="fill:green;stroke:black;stroke-width:1" /><text x="756" y="1380" font-size="8" style="fill:white">Sector 1</text><rect x="460" y="1470" width="200" height="40" style="fill:white;stroke:black;stroke-width:1" /><text x="470" y="1480" font-size="10" style="fill:blue">tramo</text><path d="M440 1140 C460 1140 440 1490 460 1490" style="fill:transparent;stroke:black" /><rect x="680" y="1470" width="200" height="40" style="fill:white;stroke:black;stroke-width:1" /><text x="690" y="1480" font-size="10" style="fill:blue">distancia</text><path d="M660 1490 C680 1490 660 1490 680 1490" style="fill:transparent;stroke:black" /><text x="690" y="1490" font-size="8" style="fill:black">unidad: m</text><rect x="746" y="1470" width="137" height="40" style="fill:green;stroke:black;stroke-width:1" /><text x="756" y="1480" font-size="8" style="fill:white">480</text><rect x="680" y="1520" width="200" height="40" style="fill:white;stroke:black;stroke-width:1" /><text x="690" y="1530" font-size="10" style="fill:blue">puntoFinal</text><path d="M660 1490 C680 1490 660 1540 680 1540" style="fill:transparent;stroke:black" /><rect x="900" y="1520" width="200" height="40" style="fill:white;stroke:black;stroke-width:1" /><text x="910" y="1530" font-size="10" style="fill:blue">longitudCoord</text><path d="M880 1540 C900 1540 880 1540 900 1540" style="fill:transparent;stroke:black" /><text x="910" y="1540" font-size="8" style="fill:black">unidad: deg</text><rect x="966" y="1520" width="137" height="40" style="fill:green;stroke:black;stroke-width:1" /><text x="976" y="1530" font-size="8" style="fill:white">-0.7</text><rect x="900" y="1570" width="200" height="40" style="fill:white;stroke:black;stroke-width:1" /><text x="910" y="1580" font-size="10" style="fill:blue">latitudCoord</text><path d="M880 1540 C900 1540 880 1590 900 1590" style="fill:transparent;stroke:black" /><text x="910" y="1590" font-size="8" style="fill:black">unidad: deg</text><rect x="966" y="1570" width="137" height="40" style="fill:green;stroke:black;stroke-width:1" /><text x="976" y="1580" font-size="8" style="fill:white">39.4</text><rect x="900" y="1620" width="200" height="40" style="fill:white;stroke:black;stroke-width:1" /><text x="910" y="1630" font-size="10" style="fill:blue">altitudCoord</text><path d="M880 1540 C900 1540 880 1640 900 1640" style="fill:transparent;stroke:black" /><text x="910" y="1640" font-size="8" style="fill:black">unidad: m</text><rect x="966" y="1620" width="137" height="40" style="fill:green;stroke:black;stroke-width:1" /><text x="976" y="1630" font-size="8" style="fill:white">77</text><rect x="680" y="1720" width="200" height="40" style="fill:white;stroke:black;stroke-width:1" /><text x="690" y="1730" font-size="10" style="fill:blue">sector</text><path d="M660 1490 C680 1490 660 1740 680 1740" style="fill:transparent;stroke:black" /><text x="690" y="1740" font-size="8" style="fill:black">numero: 2</text><rect x="746" y="1720" width="137" height="40" style="fill:green;stroke:black;stroke-width:1" /><text x="756" y="1730" font-size="8" style="fill:white">Sector 2</text><rect x="460" y="1820" width="200" height="40" style="fill:white;stroke:black;stroke-width:1" /><text x="470" y="1830" font-size="10" style="fill:blue">tramo</text><path d="M440 1140 C460 1140 440 1840 460 1840" style="fill:transparent;stroke:black" /><rect x="680" y="1820" width="200" height="40" style="fill:white;stroke:black;stroke-width:1" /><text x="690" y="1830" font-size="10" style="fill:blue">distancia</text><path d="M660 1840 C680 1840 660 1840 680 1840" style="fill:transparent;stroke:black" /><text x="690" y="1840" font-size="8" style="fill:black">unidad: m</text><rect x="746" y="1820" width="137" height="40" style="fill:green;stroke:black;stroke-width:1" /><text x="756" y="1830" font-size="8" style="fill:white">480</text><rect x="680" y="1870" width="200" height="40" style="fill:white;stroke:black;stroke-width:1" /><text x="690" y="1880" font-size="10" style="fill:blue">puntoFinal</text><path d="M660 1840 C680 1840 660 1890 680 1890" style="fill:transparent;stroke:black" /><rect x="900" y="1870" width="200" height="40" style="fill:white;stroke:black;stroke-width:1" /><text x="910" y="1880" font-size="10" style="fill:blue">longitudCoord</text><path d="M880 1890 C900 1890 880 1890 900 1890" style="fill:transparent;stroke:black" /><text x="910" y="1890" font-size="8" style="fill:black">unidad: deg</text><rect x="966" y="1870" width="137" height="40" style="fill:green;stroke:black;stroke-width:1" /><text x="976" y="1880" font-size="8" style="fill:white">-0.7</text><rect x="900" y="1920" width="200" height="40" style="fill:white;stroke:black;stroke-width:1" /><text x="910" y="1930" font-size="10" style="fill:blue">latitudCoord</text><path d="M880 1890 C900 1890 880 1940 900 1940" style="fill:transparent;stroke:black" /><text x="910" y="1940" font-size="8" style="fill:black">unidad: deg</text><rect x="966" y="1920" width="137" height="40" style="fill:green;stroke:black;stroke-width:1" /><text x="976" y="1930" font-size="8" style="fill:white">34.24</text><rect x="900" y="1970" width="200" height="40" style="fill:white;stroke:black;stroke-width:1" /><text x="910" y="1980" font-size="10" style="fill:blue">altitudCoord</text><path d="M880 1890 C900 1890 880 1990 900 1990" style="fill:transparent;stroke:black" /><text x="910" y="1990" font-size="8" style="fill:black">unidad: m</text><rect x="966" y="1970" width="137" height="40" style="fill:green;stroke:black;stroke-width:1" /><text x="976" y="1980" font-size="8" style="fill:white">73</text><rect x="680" y="2070" width="200" height="40" style="fill:white;stroke:black;stroke-width:1" /><text x="690" y="2080" font-size="10" style="fill:blue">sector</text><path d="M660 1840 C680 1840 660 2090 680 2090" style="fill:transparent;stroke:black" /><text x="690" y="2090" font-size="8" style="fill:black">numero: 2</text><rect x="746" y="2070" width="137" height="40" style="fill:green;stroke:black;stroke-width:1" /><text x="756" y="2080" font-size="8" style="fill:white">Sector 2</text><rect x="460" y="2170" width="200" height="40" style="fill:white;stroke:black;stroke-width:1" /><text x="470" y="2180" font-size="10" style="fill:blue">tramo</text><path d="M440 1140 C460 1140 440 2190 460 2190" style="fill:transparent;stroke:black" /><rect x="680" y="2170" width="200" height="40" style="fill:white;stroke:black;stroke-width:1" /><text x="690" y="2180" font-size="10" style="fill:blue">distancia</text><path d="M660 2190 C680 2190 660 2190 680 2190" style="fill:transparent;stroke:black" /><text x="690" y="2190" font-size="8" style="fill:black">unidad: m</text><rect x="746" y="2170" width="137" height="40" style="fill:green;stroke:black;stroke-width:1" /><text x="756" y="2180" font-size="8" style="fill:white">480</text><rect x="680" y="2220" width="200" height="40" style="fill:white;stroke:black;stroke-width:1" /><text x="690" y="2230" font-size="10" style="fill:blue">puntoFinal</text><path d="M660 2190 C680 2190 660 2240 680 2240" style="fill:transparent;stroke:black" /><rect x="900" y="2220" width="200" height="40" style="fill:white;stroke:black;stroke-width:1" /><text x="910" y="2230" font-size="10" style="fill:blue">longitudCoord</text><path d="M880 2240 C900 2240 880 2240 900 2240" style="fill:transparent;stroke:black" /><text x="910" y="2240" font-size="8" style="fill:black">unidad: deg</text><rect x="966" y="2220" width="137" height="40" style="fill:green;stroke:black;stroke-width:1" /><text x="976" y="2230" font-size="8" style="fill:white">-0.7</text><rect x="900" y="2270" width="200" height="40" style="fill:white;stroke:black;stroke-width:1" /><text x="910" y="2280" font-size="10" style="fill:blue">latitudCoord</text><path d="M880 2240 C900 2240 880 2290 900 2290" style="fill:transparent;stroke:black" /><text x="910" y="2290" font-size="8" style="fill:black">unidad: deg</text><rect x="966" y="2270" width="137" height="40" style="fill:green;stroke:black;stroke-width:1" /><text x="976" y="2280" font-size="8" style="fill:white">32.4</text><rect x="900" y="2320" width="200" height="40" style="fill:white;stroke:black;stroke-width:1" /><text x="910" y="2330" font-size="10" style="fill:blue">altitudCoord</text><path d="M880 2240 C900 2240 880 2340 900 2340" style="fill:transparent;stroke:black" /><text x="910" y="2340" font-size="8" style="fill:black">unidad: m</text><rect x="966" y="2320" width="137" height="40" style="fill:green;stroke:black;stroke-width:1" /><text x="976" y="2330" font-size="8" style="fill:white">72</text><rect x="680" y="2420" width="200" height="40" style="fill:white;stroke:black;stroke-width:1" /><text x="690" y="2430" font-size="10" style="fill:blue">sector</text><path d="M660 2190 C680 2190 660 2440 680 2440" style="fill:transparent;stroke:black" /><text x="690" y="2440" font-size="8" style="fill:black">numero: 2</text><rect x="746" y="2420" width="137" height="40" style="fill:green;stroke:black;stroke-width:1" /><text x="756" y="2430" font-size="8" style="fill:white">Sector 2</text><rect x="240" y="2570" width="200" height="40" style="fill:white;stroke:black;stroke-width:1" /><text x="250" y="2580" font-size="10" style="fill:blue">vencedor</text><path d="M220 40 C240 40 220 2590 240 2590" style="fill:transparent;stroke:black" /><rect x="460" y="2570" width="200" height="40" style="fill:white;stroke:black;stroke-width:1" /><text x="470" y="2580" font-size="10" style="fill:blue">nombreVencedor</text><path d="M440 2590 C460 2590 440 2590 460 2590" style="fill:transparent;stroke:black" /><rect x="526" y="2570" width="137" height="40" style="fill:green;stroke:black;stroke-width:1" /><text x="536" y="2580" font-size="8" style="fill:white">TODO</text><rect x="460" y="2620" width="200" height="40" style="fill:white;stroke:black;stroke-width:1" /><text x="470" y="2630" font-size="10" style="fill:blue">tiempo</text><path d="M440 2590 C460 2590 440 2640 460 2640" style="fill:transparent;stroke:black" /><text x="470" y="2640" font-size="8" style="fill:black">unidad: mm:ss.ms</text><rect x="526" y="2620" width="137" height="40" style="fill:green;stroke:black;stroke-width:1" /><text x="536" y="2630" font-size="8" style="fill:white">TODO</text><rect x="240" y="2720" width="200" height="40" style="fill:white;stroke:black;stroke-width:1" /><text x="250" y="2730" font-size="10" style="fill:blue">mundialClasificacion</text><path d="M220 40 C240 40 220 2740 240 2740" style="fill:transparent;stroke:black" /><rect x="460" y="2720" width="200" height="40" style="fill:white;stroke:black;stroke-width:1" /><text x="470" y="2730" font-size="10" style="fill:blue">piloto</text><path d="M440 2740 C460 2740 440 2740 460 2740" style="fill:transparent;stroke:black" /><text x="470" y="2740" font-size="8" style="fill:black">posicion: 1</text><text x="470" y="2750" font-size="8" style="fill:black">equipo: TODO</text><text x="470" y="2760" font-size="8" style="fill:black">puntos: TODO</text><rect x="526" y="2720" width="137" height="40" style="fill:green;stroke:black;stroke-width:1" /><text x="536" y="2730" font-size="8" style="fill:white">TODO - Piloto 1</text><rect x="460" y="2770" width="200" height="40" style="fill:white;stroke:black;stroke-width:1" /><text x="470" y="2780" font-size="10" style="fill:blue">piloto</text><path d="M440 2740 C460 2740 440 2790 460 2790" style="fill:transparent;stroke:black" /><text x="470" y="2790" font-size="8" style="fill:black">posicion: 2</text><text x="470" y="2800" font-size="8" style="fill:black">equipo: TODO</text><text x="470" y="2810" font-size="8" style="fill:black">puntos: TODO</text><rect x="526" y="2770" width="137" height="40" style="fill:green;stroke:black;stroke-width:1" /><text x="536" y="2780" font-size="8" style="fill:white">TODO - Piloto 2</text><rect x="460" y="2820" width="200" height="40" style="fill:white;stroke:black;stroke-width:1" /><text x="470" y="2830" font-size="10" style="fill:blue">piloto</text><path d="M440 2740 C460 2740 440 2840 460 2840" style="fill:transparent;stroke:black" /><text x="470" y="2840" font-size="8" style="fill:black">posicion: 3</text><text x="470" y="2850" font-size="8" style="fill:black">equipo: TODO</text><text x="470" y="2860" font-size="8" style="fill:black">puntos: TODO</text><rect x="526" y="2820" width="137" height="40" style="fill:green;stroke:black;stroke-width:1" /><text x="536" y="2830" font-size="8" style="fill:white">TODO - Piloto 3</text></svg>